<?xml version="1.0" encoding="UTF-8"?>
<svg xmlns="http://www.w3.org/2000/svg" xmlns:xlink="http://www.w3.org/1999/xlink" width="375pt" height="374.999991pt" viewBox="0 0 375 374.999991" version="1.2">
<defs>
<clipPath id="clip1">
  <path d="M 66 187 L 252 187 L 252 367.5625 L 66 367.5625 Z M 66 187 "/>
</clipPath>
<clipPath id="clip2">
  <path d="M 21.183594 7.5625 L 124 7.5625 L 124 106 L 21.183594 106 Z M 21.183594 7.5625 "/>
</clipPath>
<clipPath id="clip3">
  <path d="M 209 99 L 316.550781 99 L 316.550781 122 L 209 122 Z M 209 99 "/>
</clipPath>
<clipPath id="clip4">
  <path d="M 193.289062 117.617188 C 160.066406 140.136719 152.214844 186.859375 174.226562 234.3125 C 197.878906 282.242188 268.085938 298.96875 311.339844 266.820312 C 341.363281 243.335938 350.019531 188.675781 337.167969 152.800781 C 320.796875 110.550781 238.140625 81.292969 200.796875 111.585938 Z M 193.289062 117.617188 "/>
</clipPath>
<clipPath id="clip5">
  <path d="M 210.367188 99 L 317.296875 99 L 317.296875 118.328125 L 210.367188 118.328125 Z M 210.367188 99 "/>
</clipPath>
<clipPath id="clip6">
  <path d="M 193.289062 117.617188 C 160.066406 140.136719 152.214844 186.859375 174.226562 234.3125 C 197.878906 282.242188 268.085938 298.96875 311.339844 266.820312 C 341.363281 243.335938 350.019531 188.675781 337.167969 152.800781 C 320.796875 110.550781 238.140625 81.292969 200.796875 111.585938 Z M 193.289062 117.617188 "/>
</clipPath>
<clipPath id="clip7">
  <path d="M 207.375 99 L 318 99 L 318 126.550781 L 207.375 126.550781 Z M 207.375 99 "/>
</clipPath>
<clipPath id="clip8">
  <path d="M 193.289062 117.617188 C 160.066406 140.136719 152.214844 186.859375 174.226562 234.3125 C 197.878906 282.242188 268.085938 298.96875 311.339844 266.820312 C 341.363281 243.335938 350.019531 188.675781 337.167969 152.800781 C 320.796875 110.550781 238.140625 81.292969 200.796875 111.585938 Z M 193.289062 117.617188 "/>
</clipPath>
<clipPath id="clip9">
  <path d="M 204 99 L 332 99 L 332 134 L 204 134 Z M 204 99 "/>
</clipPath>
<clipPath id="clip10">
  <path d="M 193.289062 117.617188 C 160.066406 140.136719 152.214844 186.859375 174.226562 234.3125 C 197.878906 282.242188 268.085938 298.96875 311.339844 266.820312 C 341.363281 243.335938 350.019531 188.675781 337.167969 152.800781 C 320.796875 110.550781 238.140625 81.292969 200.796875 111.585938 Z M 193.289062 117.617188 "/>
</clipPath>
<clipPath id="clip11">
  <path d="M 199.152344 103.375 L 335 103.375 L 335 141 L 199.152344 141 Z M 199.152344 103.375 "/>
</clipPath>
<clipPath id="clip12">
  <path d="M 193.289062 117.617188 C 160.066406 140.136719 152.214844 186.859375 174.226562 234.3125 C 197.878906 282.242188 268.085938 298.96875 311.339844 266.820312 C 341.363281 243.335938 350.019531 188.675781 337.167969 152.800781 C 320.796875 110.550781 238.140625 81.292969 200.796875 111.585938 Z M 193.289062 117.617188 "/>
</clipPath>
<clipPath id="clip13">
  <path d="M 198.402344 106 L 337 106 L 337 145 L 198.402344 145 Z M 198.402344 106 "/>
</clipPath>
<clipPath id="clip14">
  <path d="M 193.289062 117.617188 C 160.066406 140.136719 152.214844 186.859375 174.226562 234.3125 C 197.878906 282.242188 268.085938 298.96875 311.339844 266.820312 C 341.363281 243.335938 350.019531 188.675781 337.167969 152.800781 C 320.796875 110.550781 238.140625 81.292969 200.796875 111.585938 Z M 193.289062 117.617188 "/>
</clipPath>
<clipPath id="clip15">
  <path d="M 194 107 L 342.933594 107 L 342.933594 149.730469 L 194 149.730469 Z M 194 107 "/>
</clipPath>
<clipPath id="clip16">
  <path d="M 193.289062 117.617188 C 160.066406 140.136719 152.214844 186.859375 174.226562 234.3125 C 197.878906 282.242188 268.085938 298.96875 311.339844 266.820312 C 341.363281 243.335938 350.019531 188.675781 337.167969 152.800781 C 320.796875 110.550781 238.140625 81.292969 200.796875 111.585938 Z M 193.289062 117.617188 "/>
</clipPath>
<clipPath id="clip17">
  <path d="M 196.160156 114.589844 L 342.722656 114.589844 L 342.722656 156.457031 L 196.160156 156.457031 Z M 196.160156 114.589844 "/>
</clipPath>
<clipPath id="clip18">
  <path d="M 193.289062 117.617188 C 160.066406 140.136719 152.214844 186.859375 174.226562 234.3125 C 197.878906 282.242188 268.085938 298.96875 311.339844 266.820312 C 341.363281 243.335938 350.019531 188.675781 337.167969 152.800781 C 320.796875 110.550781 238.140625 81.292969 200.796875 111.585938 Z M 193.289062 117.617188 "/>
</clipPath>
<clipPath id="clip19">
  <path d="M 191 115.335938 L 341.976562 115.335938 L 341.976562 157.953125 L 191 157.953125 Z M 191 115.335938 "/>
</clipPath>
<clipPath id="clip20">
  <path d="M 193.289062 117.617188 C 160.066406 140.136719 152.214844 186.859375 174.226562 234.3125 C 197.878906 282.242188 268.085938 298.96875 311.339844 266.820312 C 341.363281 243.335938 350.019531 188.675781 337.167969 152.800781 C 320.796875 110.550781 238.140625 81.292969 200.796875 111.585938 Z M 193.289062 117.617188 "/>
</clipPath>
<clipPath id="clip21">
  <path d="M 183 120 L 342.933594 120 L 342.933594 166.179688 L 183 166.179688 Z M 183 120 "/>
</clipPath>
<clipPath id="clip22">
  <path d="M 193.289062 117.617188 C 160.066406 140.136719 152.214844 186.859375 174.226562 234.3125 C 197.878906 282.242188 268.085938 298.96875 311.339844 266.820312 C 341.363281 243.335938 350.019531 188.675781 337.167969 152.800781 C 320.796875 110.550781 238.140625 81.292969 200.796875 111.585938 Z M 193.289062 117.617188 "/>
</clipPath>
<clipPath id="clip23">
  <path d="M 177 121.320312 L 342.933594 121.320312 L 342.933594 170.664062 L 177 170.664062 Z M 177 121.320312 "/>
</clipPath>
<clipPath id="clip24">
  <path d="M 193.289062 117.617188 C 160.066406 140.136719 152.214844 186.859375 174.226562 234.3125 C 197.878906 282.242188 268.085938 298.96875 311.339844 266.820312 C 341.363281 243.335938 350.019531 188.675781 337.167969 152.800781 C 320.796875 110.550781 238.140625 81.292969 200.796875 111.585938 Z M 193.289062 117.617188 "/>
</clipPath>
<clipPath id="clip25">
  <path d="M 190.925781 261.128906 L 297.855469 261.128906 L 297.855469 283.558594 L 190.925781 283.558594 Z M 190.925781 261.128906 "/>
</clipPath>
<clipPath id="clip26">
  <path d="M 193.289062 117.617188 C 160.066406 140.136719 152.214844 186.859375 174.226562 234.3125 C 197.878906 282.242188 268.085938 298.96875 311.339844 266.820312 C 341.363281 243.335938 350.019531 188.675781 337.167969 152.800781 C 320.796875 110.550781 238.140625 81.292969 200.796875 111.585938 Z M 193.289062 117.617188 "/>
</clipPath>
<clipPath id="clip27">
  <path d="M 189.429688 265 L 297 265 L 297 283.558594 L 189.429688 283.558594 Z M 189.429688 265 "/>
</clipPath>
<clipPath id="clip28">
  <path d="M 193.289062 117.617188 C 160.066406 140.136719 152.214844 186.859375 174.226562 234.3125 C 197.878906 282.242188 268.085938 298.96875 311.339844 266.820312 C 341.363281 243.335938 350.019531 188.675781 337.167969 152.800781 C 320.796875 110.550781 238.140625 81.292969 200.796875 111.585938 Z M 193.289062 117.617188 "/>
</clipPath>
<clipPath id="clip29">
  <path d="M 189.429688 257.390625 L 299.351562 257.390625 L 299.351562 283.558594 L 189.429688 283.558594 Z M 189.429688 257.390625 "/>
</clipPath>
<clipPath id="clip30">
  <path d="M 193.289062 117.617188 C 160.066406 140.136719 152.214844 186.859375 174.226562 234.3125 C 197.878906 282.242188 268.085938 298.96875 311.339844 266.820312 C 341.363281 243.335938 350.019531 188.675781 337.167969 152.800781 C 320.796875 110.550781 238.140625 81.292969 200.796875 111.585938 Z M 193.289062 117.617188 "/>
</clipPath>
<clipPath id="clip31">
  <path d="M 175.222656 249.167969 L 303 249.167969 L 303 283.558594 L 175.222656 283.558594 Z M 175.222656 249.167969 "/>
</clipPath>
<clipPath id="clip32">
  <path d="M 193.289062 117.617188 C 160.066406 140.136719 152.214844 186.859375 174.226562 234.3125 C 197.878906 282.242188 268.085938 298.96875 311.339844 266.820312 C 341.363281 243.335938 350.019531 188.675781 337.167969 152.800781 C 320.796875 110.550781 238.140625 81.292969 200.796875 111.585938 Z M 193.289062 117.617188 "/>
</clipPath>
<clipPath id="clip33">
  <path d="M 172.230469 242.4375 L 307.578125 242.4375 L 307.578125 279.820312 L 172.230469 279.820312 Z M 172.230469 242.4375 "/>
</clipPath>
<clipPath id="clip34">
  <path d="M 193.289062 117.617188 C 160.066406 140.136719 152.214844 186.859375 174.226562 234.3125 C 197.878906 282.242188 268.085938 298.96875 311.339844 266.820312 C 341.363281 243.335938 350.019531 188.675781 337.167969 152.800781 C 320.796875 110.550781 238.140625 81.292969 200.796875 111.585938 Z M 193.289062 117.617188 "/>
</clipPath>
<clipPath id="clip35">
  <path d="M 170 238 L 308.324219 238 L 308.324219 277.578125 L 170 277.578125 Z M 170 238 "/>
</clipPath>
<clipPath id="clip36">
  <path d="M 193.289062 117.617188 C 160.066406 140.136719 152.214844 186.859375 174.226562 234.3125 C 197.878906 282.242188 268.085938 298.96875 311.339844 266.820312 C 341.363281 243.335938 350.019531 188.675781 337.167969 152.800781 C 320.796875 110.550781 238.140625 81.292969 200.796875 111.585938 Z M 193.289062 117.617188 "/>
</clipPath>
<clipPath id="clip37">
  <path d="M 162.511719 233.46875 L 313 233.46875 L 313 276.832031 L 162.511719 276.832031 Z M 162.511719 233.46875 "/>
</clipPath>
<clipPath id="clip38">
  <path d="M 193.289062 117.617188 C 160.066406 140.136719 152.214844 186.859375 174.226562 234.3125 C 197.878906 282.242188 268.085938 298.96875 311.339844 266.820312 C 341.363281 243.335938 350.019531 188.675781 337.167969 152.800781 C 320.796875 110.550781 238.140625 81.292969 200.796875 111.585938 Z M 193.289062 117.617188 "/>
</clipPath>
<clipPath id="clip39">
  <path d="M 164.003906 227 L 311 227 L 311 269 L 164.003906 269 Z M 164.003906 227 "/>
</clipPath>
<clipPath id="clip40">
  <path d="M 193.289062 117.617188 C 160.066406 140.136719 152.214844 186.859375 174.226562 234.3125 C 197.878906 282.242188 268.085938 298.96875 311.339844 266.820312 C 341.363281 243.335938 350.019531 188.675781 337.167969 152.800781 C 320.796875 110.550781 238.140625 81.292969 200.796875 111.585938 Z M 193.289062 117.617188 "/>
</clipPath>
<clipPath id="clip41">
  <path d="M 165 225.242188 L 315.804688 225.242188 L 315.804688 268.605469 L 165 268.605469 Z M 165 225.242188 "/>
</clipPath>
<clipPath id="clip42">
  <path d="M 193.289062 117.617188 C 160.066406 140.136719 152.214844 186.859375 174.226562 234.3125 C 197.878906 282.242188 268.085938 298.96875 311.339844 266.820312 C 341.363281 243.335938 350.019531 188.675781 337.167969 152.800781 C 320.796875 110.550781 238.140625 81.292969 200.796875 111.585938 Z M 193.289062 117.617188 "/>
</clipPath>
<clipPath id="clip43">
  <path d="M 161.761719 217.019531 L 324 217.019531 L 324 263.375 L 161.761719 263.375 Z M 161.761719 217.019531 "/>
</clipPath>
<clipPath id="clip44">
  <path d="M 193.289062 117.617188 C 160.066406 140.136719 152.214844 186.859375 174.226562 234.3125 C 197.878906 282.242188 268.085938 298.96875 311.339844 266.820312 C 341.363281 243.335938 350.019531 188.675781 337.167969 152.800781 C 320.796875 110.550781 238.140625 81.292969 200.796875 111.585938 Z M 193.289062 117.617188 "/>
</clipPath>
<clipPath id="clip45">
  <path d="M 161.761719 209.542969 L 325.523438 209.542969 L 325.523438 257.390625 L 161.761719 257.390625 Z M 161.761719 209.542969 "/>
</clipPath>
<clipPath id="clip46">
  <path d="M 193.289062 117.617188 C 160.066406 140.136719 152.214844 186.859375 174.226562 234.3125 C 197.878906 282.242188 268.085938 298.96875 311.339844 266.820312 C 341.363281 243.335938 350.019531 188.675781 337.167969 152.800781 C 320.796875 110.550781 238.140625 81.292969 200.796875 111.585938 Z M 193.289062 117.617188 "/>
</clipPath>
<clipPath id="clip47">
  <path d="M 177 125.058594 L 342.933594 125.058594 L 342.933594 179.636719 L 177 179.636719 Z M 177 125.058594 "/>
</clipPath>
<clipPath id="clip48">
  <path d="M 193.289062 117.617188 C 160.066406 140.136719 152.214844 186.859375 174.226562 234.3125 C 197.878906 282.242188 268.085938 298.96875 311.339844 266.820312 C 341.363281 243.335938 350.019531 188.675781 337.167969 152.800781 C 320.796875 110.550781 238.140625 81.292969 200.796875 111.585938 Z M 193.289062 117.617188 "/>
</clipPath>
<clipPath id="clip49">
  <path d="M 172.230469 128.046875 L 342.933594 128.046875 L 342.933594 180.382812 L 172.230469 180.382812 Z M 172.230469 128.046875 "/>
</clipPath>
<clipPath id="clip50">
  <path d="M 193.289062 117.617188 C 160.066406 140.136719 152.214844 186.859375 174.226562 234.3125 C 197.878906 282.242188 268.085938 298.96875 311.339844 266.820312 C 341.363281 243.335938 350.019531 188.675781 337.167969 152.800781 C 320.796875 110.550781 238.140625 81.292969 200.796875 111.585938 Z M 193.289062 117.617188 "/>
</clipPath>
<clipPath id="clip51">
  <path d="M 167 133.28125 L 342.933594 133.28125 L 342.933594 184 L 167 184 Z M 167 133.28125 "/>
</clipPath>
<clipPath id="clip52">
  <path d="M 193.289062 117.617188 C 160.066406 140.136719 152.214844 186.859375 174.226562 234.3125 C 197.878906 282.242188 268.085938 298.96875 311.339844 266.820312 C 341.363281 243.335938 350.019531 188.675781 337.167969 152.800781 C 320.796875 110.550781 238.140625 81.292969 200.796875 111.585938 Z M 193.289062 117.617188 "/>
</clipPath>
<clipPath id="clip53">
  <path d="M 161.761719 134.027344 L 342.933594 134.027344 L 342.933594 188.609375 L 161.761719 188.609375 Z M 161.761719 134.027344 "/>
</clipPath>
<clipPath id="clip54">
  <path d="M 193.289062 117.617188 C 160.066406 140.136719 152.214844 186.859375 174.226562 234.3125 C 197.878906 282.242188 268.085938 298.96875 311.339844 266.820312 C 341.363281 243.335938 350.019531 188.675781 337.167969 152.800781 C 320.796875 110.550781 238.140625 81.292969 200.796875 111.585938 Z M 193.289062 117.617188 "/>
</clipPath>
<clipPath id="clip55">
  <path d="M 161.761719 137.765625 L 342.933594 137.765625 L 342.933594 197.578125 L 161.761719 197.578125 Z M 161.761719 137.765625 "/>
</clipPath>
<clipPath id="clip56">
  <path d="M 193.289062 117.617188 C 160.066406 140.136719 152.214844 186.859375 174.226562 234.3125 C 197.878906 282.242188 268.085938 298.96875 311.339844 266.820312 C 341.363281 243.335938 350.019531 188.675781 337.167969 152.800781 C 320.796875 110.550781 238.140625 81.292969 200.796875 111.585938 Z M 193.289062 117.617188 "/>
</clipPath>
<clipPath id="clip57">
  <path d="M 161.761719 140.011719 L 342.933594 140.011719 L 342.933594 198.328125 L 161.761719 198.328125 Z M 161.761719 140.011719 "/>
</clipPath>
<clipPath id="clip58">
  <path d="M 193.289062 117.617188 C 160.066406 140.136719 152.214844 186.859375 174.226562 234.3125 C 197.878906 282.242188 268.085938 298.96875 311.339844 266.820312 C 341.363281 243.335938 350.019531 188.675781 337.167969 152.800781 C 320.796875 110.550781 238.140625 81.292969 200.796875 111.585938 Z M 193.289062 117.617188 "/>
</clipPath>
<clipPath id="clip59">
  <path d="M 161.761719 164 L 341 164 L 341 222 L 161.761719 222 Z M 161.761719 164 "/>
</clipPath>
<clipPath id="clip60">
  <path d="M 193.289062 117.617188 C 160.066406 140.136719 152.214844 186.859375 174.226562 234.3125 C 197.878906 282.242188 268.085938 298.96875 311.339844 266.820312 C 341.363281 243.335938 350.019531 188.675781 337.167969 152.800781 C 320.796875 110.550781 238.140625 81.292969 200.796875 111.585938 Z M 193.289062 117.617188 "/>
</clipPath>
<clipPath id="clip61">
  <path d="M 161.761719 163.1875 L 342.933594 163.1875 L 342.933594 219 L 161.761719 219 Z M 161.761719 163.1875 "/>
</clipPath>
<clipPath id="clip62">
  <path d="M 193.289062 117.617188 C 160.066406 140.136719 152.214844 186.859375 174.226562 234.3125 C 197.878906 282.242188 268.085938 298.96875 311.339844 266.820312 C 341.363281 243.335938 350.019531 188.675781 337.167969 152.800781 C 320.796875 110.550781 238.140625 81.292969 200.796875 111.585938 Z M 193.289062 117.617188 "/>
</clipPath>
<clipPath id="clip63">
  <path d="M 161.761719 159.449219 L 342.933594 159.449219 L 342.933594 214 L 161.761719 214 Z M 161.761719 159.449219 "/>
</clipPath>
<clipPath id="clip64">
  <path d="M 193.289062 117.617188 C 160.066406 140.136719 152.214844 186.859375 174.226562 234.3125 C 197.878906 282.242188 268.085938 298.96875 311.339844 266.820312 C 341.363281 243.335938 350.019531 188.675781 337.167969 152.800781 C 320.796875 110.550781 238.140625 81.292969 200.796875 111.585938 Z M 193.289062 117.617188 "/>
</clipPath>
<clipPath id="clip65">
  <path d="M 161.761719 177 L 337.488281 177 L 337.488281 234.960938 L 161.761719 234.960938 Z M 161.761719 177 "/>
</clipPath>
<clipPath id="clip66">
  <path d="M 193.289062 117.617188 C 160.066406 140.136719 152.214844 186.859375 174.226562 234.3125 C 197.878906 282.242188 268.085938 298.96875 311.339844 266.820312 C 341.363281 243.335938 350.019531 188.675781 337.167969 152.800781 C 320.796875 110.550781 238.140625 81.292969 200.796875 111.585938 Z M 193.289062 117.617188 "/>
</clipPath>
<clipPath id="clip67">
  <path d="M 161.761719 176 L 342.722656 176 L 342.722656 231.972656 L 161.761719 231.972656 Z M 161.761719 176 "/>
</clipPath>
<clipPath id="clip68">
  <path d="M 193.289062 117.617188 C 160.066406 140.136719 152.214844 186.859375 174.226562 234.3125 C 197.878906 282.242188 268.085938 298.96875 311.339844 266.820312 C 341.363281 243.335938 350.019531 188.675781 337.167969 152.800781 C 320.796875 110.550781 238.140625 81.292969 200.796875 111.585938 Z M 193.289062 117.617188 "/>
</clipPath>
<clipPath id="clip69">
  <path d="M 161.761719 172.160156 L 342.933594 172.160156 L 342.933594 226.738281 L 161.761719 226.738281 Z M 161.761719 172.160156 "/>
</clipPath>
<clipPath id="clip70">
  <path d="M 193.289062 117.617188 C 160.066406 140.136719 152.214844 186.859375 174.226562 234.3125 C 197.878906 282.242188 268.085938 298.96875 311.339844 266.820312 C 341.363281 243.335938 350.019531 188.675781 337.167969 152.800781 C 320.796875 110.550781 238.140625 81.292969 200.796875 111.585938 Z M 193.289062 117.617188 "/>
</clipPath>
<clipPath id="clip71">
  <path d="M 161.761719 182 L 335.992188 182 L 335.992188 239.449219 L 161.761719 239.449219 Z M 161.761719 182 "/>
</clipPath>
<clipPath id="clip72">
  <path d="M 193.289062 117.617188 C 160.066406 140.136719 152.214844 186.859375 174.226562 234.3125 C 197.878906 282.242188 268.085938 298.96875 311.339844 266.820312 C 341.363281 243.335938 350.019531 188.675781 337.167969 152.800781 C 320.796875 110.550781 238.140625 81.292969 200.796875 111.585938 Z M 193.289062 117.617188 "/>
</clipPath>
<clipPath id="clip73">
  <path d="M 161.761719 201.316406 L 330.757812 201.316406 L 330.757812 258.886719 L 161.761719 258.886719 Z M 161.761719 201.316406 "/>
</clipPath>
<clipPath id="clip74">
  <path d="M 193.289062 117.617188 C 160.066406 140.136719 152.214844 186.859375 174.226562 234.3125 C 197.878906 282.242188 268.085938 298.96875 311.339844 266.820312 C 341.363281 243.335938 350.019531 188.675781 337.167969 152.800781 C 320.796875 110.550781 238.140625 81.292969 200.796875 111.585938 Z M 193.289062 117.617188 "/>
</clipPath>
<clipPath id="clip75">
  <path d="M 161.761719 194.589844 L 332.253906 194.589844 L 332.253906 252.160156 L 161.761719 252.160156 Z M 161.761719 194.589844 "/>
</clipPath>
<clipPath id="clip76">
  <path d="M 193.289062 117.617188 C 160.066406 140.136719 152.214844 186.859375 174.226562 234.3125 C 197.878906 282.242188 268.085938 298.96875 311.339844 266.820312 C 341.363281 243.335938 350.019531 188.675781 337.167969 152.800781 C 320.796875 110.550781 238.140625 81.292969 200.796875 111.585938 Z M 193.289062 117.617188 "/>
</clipPath>
<clipPath id="clip77">
  <path d="M 161.761719 194 L 337.488281 194 L 337.488281 249.914062 L 161.761719 249.914062 Z M 161.761719 194 "/>
</clipPath>
<clipPath id="clip78">
  <path d="M 193.289062 117.617188 C 160.066406 140.136719 152.214844 186.859375 174.226562 234.3125 C 197.878906 282.242188 268.085938 298.96875 311.339844 266.820312 C 341.363281 243.335938 350.019531 188.675781 337.167969 152.800781 C 320.796875 110.550781 238.140625 81.292969 200.796875 111.585938 Z M 193.289062 117.617188 "/>
</clipPath>
<clipPath id="clip79">
  <path d="M 161.761719 190.101562 L 342.722656 190.101562 L 342.722656 244 L 161.761719 244 Z M 161.761719 190.101562 "/>
</clipPath>
<clipPath id="clip80">
  <path d="M 193.289062 117.617188 C 160.066406 140.136719 152.214844 186.859375 174.226562 234.3125 C 197.878906 282.242188 268.085938 298.96875 311.339844 266.820312 C 341.363281 243.335938 350.019531 188.675781 337.167969 152.800781 C 320.796875 110.550781 238.140625 81.292969 200.796875 111.585938 Z M 193.289062 117.617188 "/>
</clipPath>
<clipPath id="clip81">
  <path d="M 161.761719 155 L 342.933594 155 L 342.933594 209.542969 L 161.761719 209.542969 Z M 161.761719 155 "/>
</clipPath>
<clipPath id="clip82">
  <path d="M 193.289062 117.617188 C 160.066406 140.136719 152.214844 186.859375 174.226562 234.3125 C 197.878906 282.242188 268.085938 298.96875 311.339844 266.820312 C 341.363281 243.335938 350.019531 188.675781 337.167969 152.800781 C 320.796875 110.550781 238.140625 81.292969 200.796875 111.585938 Z M 193.289062 117.617188 "/>
</clipPath>
<clipPath id="clip83">
  <path d="M 161.761719 146 L 342.933594 146 L 342.933594 205.804688 L 161.761719 205.804688 Z M 161.761719 146 "/>
</clipPath>
<clipPath id="clip84">
  <path d="M 193.289062 117.617188 C 160.066406 140.136719 152.214844 186.859375 174.226562 234.3125 C 197.878906 282.242188 268.085938 298.96875 311.339844 266.820312 C 341.363281 243.335938 350.019531 188.675781 337.167969 152.800781 C 320.796875 110.550781 238.140625 81.292969 200.796875 111.585938 Z M 193.289062 117.617188 "/>
</clipPath>
<clipPath id="clip85">
  <path d="M 161.761719 145.242188 L 342.933594 145.242188 L 342.933594 203.5625 L 161.761719 203.5625 Z M 161.761719 145.242188 "/>
</clipPath>
<clipPath id="clip86">
  <path d="M 193.289062 117.617188 C 160.066406 140.136719 152.214844 186.859375 174.226562 234.3125 C 197.878906 282.242188 268.085938 298.96875 311.339844 266.820312 C 341.363281 243.335938 350.019531 188.675781 337.167969 152.800781 C 320.796875 110.550781 238.140625 81.292969 200.796875 111.585938 Z M 193.289062 117.617188 "/>
</clipPath>
</defs>
<g id="surface1">
<path style=" stroke:none;fill-rule:nonzero;fill:rgb(23.139954%,38.42926%,37.249756%);fill-opacity:1;" d="M 142.171875 57.144531 C 133.070312 37.632812 108.992188 29.5 81.984375 37.117188 C 54.582031 45.5625 39.75 81.3125 53.097656 106.949219 C 62.976562 124.839844 91.191406 134.082031 111.289062 130.328125 C 135.058594 125.257812 157.589844 83.988281 144.726562 61.628906 L 142.171875 57.144531 "/>
<g clip-path="url(#clip1)" clip-rule="nonzero">
<path style=" stroke:none;fill-rule:nonzero;fill:rgb(85.099792%,56.079102%,53.729248%);fill-opacity:1;" d="M 82.769531 222.46875 C 57.109375 253.332031 62.550781 300.398438 96.878906 339.867188 C 132.929688 379.34375 205.011719 375.910156 237.632812 333.003906 C 259.945312 302.117188 253.078125 247.195312 230.757812 216.300781 C 203.300781 180.265625 115.757812 175.113281 88.300781 214.589844 L 82.769531 222.46875 "/>
</g>
<g clip-path="url(#clip2)" clip-rule="nonzero">
<path style=" stroke:none;fill-rule:nonzero;fill:rgb(85.099792%,56.079102%,53.729248%);fill-opacity:1;" d="M 117.152344 81.273438 C 126.226562 67.050781 124.222656 50.058594 116.222656 35.84375 C 107.945312 21.136719 94.660156 10.5625 77.824219 8.179688 C 63.382812 6.132812 48.023438 10.378906 36.59375 19.367188 C 23.75 29.460938 19.652344 44.320312 21.667969 60.117188 C 23.257812 72.519531 28.707031 86.695312 38.136719 95.292969 C 45.769531 102.246094 56.832031 104.789062 66.847656 105.46875 C 77.707031 106.199219 88.988281 104.398438 98.875 99.785156 C 103.28125 97.730469 107.324219 94.902344 110.667969 91.375 C 113.457031 88.429688 115.230469 84.796875 117.152344 81.273438 C 117.703125 80.265625 115.503906 80.375 115.109375 81.113281 C 112.371094 86.125 109.734375 90.65625 105.164062 94.277344 C 99.488281 98.785156 92.421875 101.304688 85.410156 102.808594 C 71.503906 105.789062 54.859375 104.570312 42.808594 96.464844 C 36.113281 91.957031 31.765625 84.152344 28.640625 76.929688 C 25.035156 68.59375 23.164062 59.414062 23.300781 50.339844 C 23.5625 32.480469 35.160156 18.9375 51.378906 12.585938 C 70.195312 5.222656 91.265625 9.78125 105.050781 24.402344 C 119.25 39.460938 127.042969 62.410156 115.109375 81.113281 C 114.503906 82.0625 116.703125 81.976562 117.152344 81.273438 "/>
</g>
<g clip-path="url(#clip3)" clip-rule="nonzero">
<g clip-path="url(#clip4)" clip-rule="nonzero">
<path style=" stroke:none;fill-rule:nonzero;fill:rgb(79.60968%,64.709473%,64.309692%);fill-opacity:1;" d="M 209.425781 95.457031 C 245.3125 100.578125 279.429688 113.289062 314.570312 121.664062 C 315.003906 121.757812 316.484375 121.078125 315.921875 120.953125 C 280.679688 112.554688 246.460938 99.824219 210.480469 94.6875 C 210.0625 94.628906 208.542969 95.335938 209.425781 95.457031 "/>
</g>
</g>
<g clip-path="url(#clip5)" clip-rule="nonzero">
<g clip-path="url(#clip6)" clip-rule="nonzero">
<path style=" stroke:none;fill-rule:nonzero;fill:rgb(79.60968%,64.709473%,64.309692%);fill-opacity:1;" d="M 210.667969 92.109375 C 246.542969 97.222656 280.664062 109.933594 315.804688 118.296875 C 316.242188 118.410156 317.71875 117.730469 317.15625 117.59375 C 281.914062 109.199219 247.703125 96.464844 211.722656 91.332031 C 211.300781 91.269531 209.777344 91.980469 210.667969 92.109375 "/>
</g>
</g>
<g clip-path="url(#clip7)" clip-rule="nonzero">
<g clip-path="url(#clip8)" clip-rule="nonzero">
<path style=" stroke:none;fill-rule:nonzero;fill:rgb(79.60968%,64.709473%,64.309692%);fill-opacity:1;" d="M 208.207031 98.800781 C 226.363281 100.96875 243.867188 106.621094 261.328125 111.800781 C 279.402344 117.167969 298.386719 118.8125 315.921875 126.066406 C 316.421875 126.269531 317.941406 125.535156 317.238281 125.25 C 300.488281 118.328125 282.390625 116.28125 264.992188 111.628906 C 246.441406 106.671875 228.394531 100.175781 209.222656 97.886719 C 208.691406 97.820312 207.265625 98.6875 208.207031 98.800781 "/>
</g>
</g>
<g clip-path="url(#clip9)" clip-rule="nonzero">
<g clip-path="url(#clip10)" clip-rule="nonzero">
<path style=" stroke:none;fill-rule:nonzero;fill:rgb(79.60968%,64.709473%,64.309692%);fill-opacity:1;" d="M 204.386719 99.15625 C 222.519531 108.285156 243.121094 110.207031 262.351562 116.054688 C 284.769531 122.867188 307.53125 128.0625 330.25 133.746094 C 330.878906 133.902344 332.222656 132.972656 331.238281 132.726562 C 308.945312 127.148438 286.445312 122.367188 264.519531 115.40625 C 245.0625 109.238281 224.097656 107.539062 205.6875 98.269531 C 205.117188 97.984375 203.613281 98.769531 204.386719 99.15625 "/>
</g>
</g>
<g clip-path="url(#clip11)" clip-rule="nonzero">
<g clip-path="url(#clip12)" clip-rule="nonzero">
<path style=" stroke:none;fill-rule:nonzero;fill:rgb(79.60968%,64.709473%,64.309692%);fill-opacity:1;" d="M 200.101562 104.542969 C 245.363281 112.980469 288.660156 129.109375 333.082031 140.824219 C 333.515625 140.945312 335.003906 140.265625 334.429688 140.113281 C 289.90625 128.375 246.523438 112.226562 201.15625 103.769531 C 200.730469 103.695312 199.21875 104.375 200.101562 104.542969 "/>
</g>
</g>
<g clip-path="url(#clip13)" clip-rule="nonzero">
<g clip-path="url(#clip14)" clip-rule="nonzero">
<path style=" stroke:none;fill-rule:nonzero;fill:rgb(79.60968%,64.709473%,64.309692%);fill-opacity:1;" d="M 199.113281 107.226562 C 221.785156 111.007812 243.746094 118.261719 265.628906 125.109375 C 288.726562 132.347656 312.863281 135.75 335.402344 144.839844 C 335.910156 145.042969 337.421875 144.308594 336.726562 144.03125 C 314.988281 135.261719 291.769531 131.589844 269.359375 125.019531 C 246.394531 118.289062 223.8125 110.269531 200.128906 106.3125 C 199.59375 106.222656 198.164062 107.066406 199.113281 107.226562 "/>
</g>
</g>
<g clip-path="url(#clip15)" clip-rule="nonzero">
<g clip-path="url(#clip16)" clip-rule="nonzero">
<path style=" stroke:none;fill-rule:nonzero;fill:rgb(79.60968%,64.709473%,64.309692%);fill-opacity:1;" d="M 194.238281 107.949219 C 215.953125 118.214844 240.121094 121.175781 262.921875 128.167969 C 289.308594 136.257812 316.09375 142.640625 342.796875 149.574219 C 343.425781 149.738281 344.765625 148.808594 343.785156 148.546875 C 317.507812 141.738281 291.007812 135.726562 265.105469 127.523438 C 242.082031 120.234375 217.539062 117.460938 195.539062 107.0625 C 194.972656 106.792969 193.46875 107.585938 194.238281 107.949219 "/>
</g>
</g>
<g clip-path="url(#clip17)" clip-rule="nonzero">
<g clip-path="url(#clip18)" clip-rule="nonzero">
<path style=" stroke:none;fill-rule:nonzero;fill:rgb(79.60968%,64.709473%,64.309692%);fill-opacity:1;" d="M 196.699219 115.570312 C 220.597656 119.851562 243.761719 127.589844 266.839844 134.949219 C 291.304688 142.761719 316.855469 146.707031 340.757812 156.359375 C 341.265625 156.5625 342.773438 155.832031 342.078125 155.546875 C 318.980469 146.214844 294.34375 142.035156 270.578125 134.882812 C 246.417969 127.605469 222.617188 119.121094 197.714844 114.65625 C 197.175781 114.558594 195.75 115.398438 196.699219 115.570312 "/>
</g>
</g>
<g clip-path="url(#clip19)" clip-rule="nonzero">
<g clip-path="url(#clip20)" clip-rule="nonzero">
<path style=" stroke:none;fill-rule:nonzero;fill:rgb(79.60968%,64.709473%,64.309692%);fill-opacity:1;" d="M 191.824219 116.285156 C 213.539062 126.558594 237.714844 129.519531 260.503906 136.511719 C 286.894531 144.601562 313.679688 150.984375 340.390625 157.917969 C 341.011719 158.074219 342.355469 157.144531 341.375 156.890625 C 315.09375 150.082031 288.589844 144.0625 262.695312 135.867188 C 239.664062 128.578125 215.125 125.804688 193.132812 115.40625 C 192.554688 115.136719 191.058594 115.929688 191.824219 116.285156 "/>
</g>
</g>
<g clip-path="url(#clip21)" clip-rule="nonzero">
<g clip-path="url(#clip22)" clip-rule="nonzero">
<path style=" stroke:none;fill-rule:nonzero;fill:rgb(79.60968%,64.709473%,64.309692%);fill-opacity:1;" d="M 183.539062 121.183594 C 209.910156 128.757812 236.929688 133.820312 263.234375 141.648438 C 290.070312 149.640625 316.714844 158.230469 343.621094 166.019531 C 344.015625 166.132812 345.496094 165.496094 344.972656 165.339844 C 318.074219 157.550781 291.394531 149.070312 264.59375 140.972656 C 238.320312 133.042969 211.265625 128.085938 184.890625 120.503906 C 184.488281 120.390625 183.007812 121.027344 183.539062 121.183594 "/>
</g>
</g>
<g clip-path="url(#clip23)" clip-rule="nonzero">
<g clip-path="url(#clip24)" clip-rule="nonzero">
<path style=" stroke:none;fill-rule:nonzero;fill:rgb(79.60968%,64.709473%,64.309692%);fill-opacity:1;" d="M 349.414062 169.558594 C 321.203125 161.453125 292.332031 155.882812 264.191406 147.492188 C 235.722656 139 207.421875 129.960938 178.878906 121.699219 C 178.476562 121.585938 176.996094 122.222656 177.527344 122.378906 C 206.066406 130.640625 234.394531 139.578125 262.832031 148.167969 C 290.941406 156.660156 319.847656 162.125 348.0625 170.238281 C 348.464844 170.351562 349.945312 169.714844 349.414062 169.558594 "/>
</g>
</g>
<g clip-path="url(#clip25)" clip-rule="nonzero">
<g clip-path="url(#clip26)" clip-rule="nonzero">
<path style=" stroke:none;fill-rule:nonzero;fill:rgb(79.60968%,64.709473%,64.309692%);fill-opacity:1;" d="M 297.578125 288.039062 C 261.695312 282.917969 227.582031 270.214844 192.4375 261.839844 C 192.007812 261.742188 190.523438 262.417969 191.082031 262.550781 C 226.324219 270.945312 260.542969 283.679688 296.523438 288.808594 C 296.953125 288.867188 298.460938 288.164062 297.578125 288.039062 "/>
</g>
</g>
<g clip-path="url(#clip27)" clip-rule="nonzero">
<g clip-path="url(#clip28)" clip-rule="nonzero">
<path style=" stroke:none;fill-rule:nonzero;fill:rgb(79.60968%,64.709473%,64.309692%);fill-opacity:1;" d="M 296.339844 291.394531 C 260.460938 286.273438 226.339844 273.570312 191.203125 265.199219 C 190.769531 265.09375 189.289062 265.773438 189.847656 265.90625 C 225.089844 274.304688 259.308594 287.027344 295.285156 292.164062 C 295.703125 292.226562 297.226562 291.523438 296.339844 291.394531 "/>
</g>
</g>
<g clip-path="url(#clip29)" clip-rule="nonzero">
<g clip-path="url(#clip30)" clip-rule="nonzero">
<path style=" stroke:none;fill-rule:nonzero;fill:rgb(79.60968%,64.709473%,64.309692%);fill-opacity:1;" d="M 298.796875 284.703125 C 280.644531 282.527344 263.136719 276.882812 245.675781 271.703125 C 227.601562 266.332031 208.625 264.679688 191.082031 257.4375 C 190.582031 257.226562 189.0625 257.960938 189.765625 258.25 C 206.523438 265.175781 224.613281 267.222656 242.019531 271.875 C 260.566406 276.824219 278.609375 283.328125 297.78125 285.617188 C 298.3125 285.683594 299.742188 284.816406 298.796875 284.703125 "/>
</g>
</g>
<g clip-path="url(#clip31)" clip-rule="nonzero">
<g clip-path="url(#clip32)" clip-rule="nonzero">
<path style=" stroke:none;fill-rule:nonzero;fill:rgb(79.60968%,64.709473%,64.309692%);fill-opacity:1;" d="M 302.628906 284.34375 C 284.484375 275.214844 263.886719 273.292969 244.652344 267.449219 C 222.234375 260.628906 199.472656 255.441406 176.753906 249.75 C 176.128906 249.59375 174.789062 250.527344 175.769531 250.773438 C 198.058594 256.351562 220.558594 261.136719 242.484375 268.089844 C 261.933594 274.265625 282.910156 275.964844 301.320312 285.226562 C 301.886719 285.519531 303.390625 284.726562 302.628906 284.34375 "/>
</g>
</g>
<g clip-path="url(#clip33)" clip-rule="nonzero">
<g clip-path="url(#clip34)" clip-rule="nonzero">
<path style=" stroke:none;fill-rule:nonzero;fill:rgb(79.60968%,64.709473%,64.309692%);fill-opacity:1;" d="M 306.90625 278.953125 C 261.640625 270.511719 218.347656 254.394531 173.921875 242.671875 C 173.496094 242.558594 172.007812 243.230469 172.566406 243.378906 C 217.097656 255.125 260.484375 271.269531 305.851562 279.722656 C 306.277344 279.804688 307.792969 279.125 306.90625 278.953125 "/>
</g>
</g>
<g clip-path="url(#clip35)" clip-rule="nonzero">
<g clip-path="url(#clip36)" clip-rule="nonzero">
<path style=" stroke:none;fill-rule:nonzero;fill:rgb(79.60968%,64.709473%,64.309692%);fill-opacity:1;" d="M 307.890625 276.269531 C 285.21875 272.488281 263.257812 265.242188 241.371094 258.386719 C 218.277344 251.15625 194.140625 247.746094 171.601562 238.664062 C 171.09375 238.453125 169.585938 239.1875 170.28125 239.46875 C 192.015625 248.242188 215.242188 251.910156 237.644531 258.476562 C 260.609375 265.210938 283.191406 273.234375 306.875 277.191406 C 307.414062 277.28125 308.839844 276.433594 307.890625 276.269531 "/>
</g>
</g>
<g clip-path="url(#clip37)" clip-rule="nonzero">
<g clip-path="url(#clip38)" clip-rule="nonzero">
<path style=" stroke:none;fill-rule:nonzero;fill:rgb(79.60968%,64.709473%,64.309692%);fill-opacity:1;" d="M 312.765625 275.550781 C 291.050781 265.289062 266.875 262.328125 244.085938 255.335938 C 217.695312 247.238281 190.910156 240.855469 164.207031 233.929688 C 163.578125 233.765625 162.234375 234.691406 163.21875 234.945312 C 189.496094 241.765625 216 247.777344 241.902344 255.980469 C 264.925781 263.269531 289.472656 266.042969 311.464844 276.441406 C 312.035156 276.710938 313.53125 275.917969 312.765625 275.550781 "/>
</g>
</g>
<g clip-path="url(#clip39)" clip-rule="nonzero">
<g clip-path="url(#clip40)" clip-rule="nonzero">
<path style=" stroke:none;fill-rule:nonzero;fill:rgb(79.60968%,64.709473%,64.309692%);fill-opacity:1;" d="M 310.308594 267.933594 C 286.40625 263.640625 263.242188 255.910156 240.164062 248.546875 C 215.691406 240.742188 190.148438 236.792969 166.25 227.140625 C 165.746094 226.941406 164.230469 227.671875 164.925781 227.949219 C 188.023438 237.289062 212.664062 241.46875 236.433594 248.621094 C 260.585938 255.890625 284.390625 264.382812 309.289062 268.847656 C 309.820312 268.941406 311.257812 268.097656 310.308594 267.933594 "/>
</g>
</g>
<g clip-path="url(#clip41)" clip-rule="nonzero">
<g clip-path="url(#clip42)" clip-rule="nonzero">
<path style=" stroke:none;fill-rule:nonzero;fill:rgb(79.60968%,64.709473%,64.309692%);fill-opacity:1;" d="M 315.183594 267.207031 C 293.460938 256.941406 269.292969 253.984375 246.5 246.992188 C 220.109375 238.902344 193.324219 232.511719 166.621094 225.585938 C 165.996094 225.421875 164.648438 226.347656 165.636719 226.601562 C 191.914062 233.421875 218.414062 239.433594 244.308594 247.636719 C 267.339844 254.925781 291.882812 257.699219 313.875 268.097656 C 314.449219 268.367188 315.953125 267.574219 315.183594 267.207031 "/>
</g>
</g>
<g clip-path="url(#clip43)" clip-rule="nonzero">
<g clip-path="url(#clip44)" clip-rule="nonzero">
<path style=" stroke:none;fill-rule:nonzero;fill:rgb(79.60968%,64.709473%,64.309692%);fill-opacity:1;" d="M 323.476562 262.320312 C 297.101562 254.738281 270.078125 249.683594 243.769531 241.847656 C 216.941406 233.863281 190.289062 225.273438 163.390625 217.480469 C 162.988281 217.363281 161.507812 218.003906 162.03125 218.15625 C 188.929688 225.945312 215.609375 234.429688 242.417969 242.527344 C 268.6875 250.460938 295.746094 255.417969 322.113281 262.992188 C 322.519531 263.113281 324 262.46875 323.476562 262.320312 "/>
</g>
</g>
<g clip-path="url(#clip45)" clip-rule="nonzero">
<g clip-path="url(#clip46)" clip-rule="nonzero">
<path style=" stroke:none;fill-rule:nonzero;fill:rgb(79.60968%,64.709473%,64.309692%);fill-opacity:1;" d="M 325.15625 256.503906 C 297.707031 248.605469 269.605469 243.261719 242.230469 235.097656 C 214.464844 226.820312 186.863281 217.984375 159.03125 209.914062 C 158.628906 209.804688 157.140625 210.4375 157.671875 210.597656 C 185.511719 218.65625 213.132812 227.394531 240.867188 235.777344 C 268.214844 244.039062 296.351562 249.289062 323.796875 257.175781 C 324.199219 257.292969 325.679688 256.652344 325.15625 256.503906 "/>
</g>
</g>
<g clip-path="url(#clip47)" clip-rule="nonzero">
<g clip-path="url(#clip48)" clip-rule="nonzero">
<path style=" stroke:none;fill-rule:nonzero;fill:rgb(79.60968%,64.709473%,64.309692%);fill-opacity:1;" d="M 177.464844 126.019531 C 206.988281 134.566406 236.300781 143.800781 265.769531 152.496094 C 280.417969 156.816406 295.097656 161.003906 309.761719 165.242188 C 316.664062 167.238281 323.394531 169.378906 330.046875 172.105469 C 336.457031 174.730469 342.8125 177.445312 349.542969 179.171875 C 350.027344 179.300781 351.492188 178.558594 350.574219 178.320312 C 343.5 176.503906 336.824219 173.570312 330.085938 170.804688 C 323.414062 168.078125 316.589844 166.066406 309.671875 164.070312 C 295.007812 159.824219 280.328125 155.628906 265.6875 151.308594 C 236.6875 142.761719 207.847656 133.664062 178.804688 125.25 C 178.324219 125.117188 176.824219 125.835938 177.464844 126.019531 "/>
</g>
</g>
<g clip-path="url(#clip49)" clip-rule="nonzero">
<g clip-path="url(#clip50)" clip-rule="nonzero">
<path style=" stroke:none;fill-rule:nonzero;fill:rgb(79.60968%,64.709473%,64.309692%);fill-opacity:1;" d="M 172.769531 128.734375 C 202.5 137.363281 231.769531 147.523438 261.523438 156.085938 C 275.324219 160.054688 289.257812 163.382812 303.242188 166.671875 C 317.515625 170.035156 331.78125 173.773438 345.117188 180.007812 C 345.5625 180.226562 346.886719 179.539062 346.679688 179.433594 C 334.09375 173.550781 320.699219 169.886719 307.234375 166.640625 C 292.875 163.171875 278.519531 159.859375 264.296875 155.832031 C 234.042969 147.246094 204.339844 136.839844 174.128906 128.078125 C 173.742188 127.957031 172.261719 128.585938 172.769531 128.734375 "/>
</g>
</g>
<g clip-path="url(#clip51)" clip-rule="nonzero">
<g clip-path="url(#clip52)" clip-rule="nonzero">
<path style=" stroke:none;fill-rule:nonzero;fill:rgb(79.60968%,64.709473%,64.309692%);fill-opacity:1;" d="M 167.617188 134.074219 C 196.554688 142.394531 226.136719 148.234375 255.015625 156.765625 C 284.972656 165.609375 314.710938 175.140625 344.71875 183.828125 C 345.121094 183.949219 346.601562 183.308594 346.074219 183.15625 C 316.550781 174.605469 287.222656 165.40625 257.796875 156.511719 C 228.5 147.652344 198.386719 141.855469 168.976562 133.402344 C 168.574219 133.28125 167.085938 133.925781 167.617188 134.074219 "/>
</g>
</g>
<g clip-path="url(#clip53)" clip-rule="nonzero">
<g clip-path="url(#clip54)" clip-rule="nonzero">
<path style=" stroke:none;fill-rule:nonzero;fill:rgb(79.60968%,64.709473%,64.309692%);fill-opacity:1;" d="M 351.074219 187.539062 C 320.078125 178.617188 288.417969 172.21875 257.492188 163.054688 C 225.75 153.65625 194.207031 143.644531 162.40625 134.433594 C 162 134.320312 160.519531 134.957031 161.050781 135.113281 C 192.367188 144.175781 223.492188 153.871094 254.703125 163.308594 C 286.054688 172.789062 318.246094 179.15625 349.714844 188.210938 C 350.125 188.324219 351.605469 187.6875 351.074219 187.539062 "/>
</g>
</g>
<g clip-path="url(#clip55)" clip-rule="nonzero">
<g clip-path="url(#clip56)" clip-rule="nonzero">
<path style=" stroke:none;fill-rule:nonzero;fill:rgb(79.60968%,64.709473%,64.309692%);fill-opacity:1;" d="M 161.089844 138.777344 C 193.617188 148.195312 225.9375 158.296875 258.417969 167.859375 C 274.535156 172.609375 290.683594 177.226562 306.820312 181.894531 C 314.589844 184.136719 322.210938 186.492188 329.726562 189.480469 C 336.925781 192.339844 344.070312 195.3125 351.589844 197.257812 C 352.070312 197.386719 353.535156 196.644531 352.617188 196.40625 C 345.210938 194.492188 338.152344 191.554688 331.066406 188.710938 C 323.558594 185.707031 315.921875 183.367188 308.160156 181.125 C 292.023438 176.457031 275.871094 171.832031 259.75 167.097656 C 227.265625 157.550781 194.949219 147.425781 162.421875 138.015625 C 161.949219 137.871094 160.445312 138.597656 161.089844 138.777344 "/>
</g>
</g>
<g clip-path="url(#clip57)" clip-rule="nonzero">
<g clip-path="url(#clip58)" clip-rule="nonzero">
<path style=" stroke:none;fill-rule:nonzero;fill:rgb(79.60968%,64.709473%,64.309692%);fill-opacity:1;" d="M 156.011719 141.386719 C 188.929688 150.933594 221.382812 162.019531 254.328125 171.492188 C 269.628906 175.898438 285.0625 179.652344 300.539062 183.382812 C 316.265625 187.171875 331.984375 191.328125 346.773438 197.992188 C 347.222656 198.191406 348.546875 197.511719 348.339844 197.414062 C 334.308594 191.097656 319.46875 187.023438 304.5625 183.367188 C 288.695312 179.472656 272.835938 175.710938 257.117188 171.246094 C 223.671875 161.738281 190.777344 150.410156 157.371094 140.726562 C 156.976562 140.609375 155.503906 141.234375 156.011719 141.386719 "/>
</g>
</g>
<g clip-path="url(#clip59)" clip-rule="nonzero">
<g clip-path="url(#clip60)" clip-rule="nonzero">
<path style=" stroke:none;fill-rule:nonzero;fill:rgb(79.60968%,64.709473%,64.309692%);fill-opacity:1;" d="M 340.824219 220.964844 C 309.199219 211.808594 277.785156 201.953125 246.207031 192.660156 C 230.640625 188.078125 215.039062 183.621094 199.457031 179.113281 C 192.1875 177.011719 185.101562 174.738281 178.078125 171.90625 C 171.328125 169.191406 164.617188 166.394531 157.558594 164.578125 C 157.074219 164.449219 155.601562 165.191406 156.519531 165.421875 C 163.921875 167.335938 170.945312 170.34375 178.019531 173.191406 C 185.0625 176.03125 192.25 178.183594 199.539062 180.292969 C 215.128906 184.800781 230.730469 189.265625 246.296875 193.847656 C 277.40625 203 308.347656 212.710938 339.492188 221.734375 C 339.96875 221.871094 341.464844 221.152344 340.824219 220.964844 "/>
</g>
</g>
<g clip-path="url(#clip61)" clip-rule="nonzero">
<g clip-path="url(#clip62)" clip-rule="nonzero">
<path style=" stroke:none;fill-rule:nonzero;fill:rgb(79.60968%,64.709473%,64.309692%);fill-opacity:1;" d="M 345.75 218.3125 C 314.292969 209.191406 283.289062 198.542969 251.808594 189.46875 C 236.980469 185.191406 222.019531 181.558594 207.011719 177.976562 C 191.761719 174.335938 176.515625 170.335938 162.21875 163.800781 C 161.761719 163.589844 160.4375 164.277344 160.65625 164.375 C 188.070312 176.898438 218.734375 181.144531 247.582031 189.308594 C 280.058594 198.5 311.972656 209.578125 344.390625 218.976562 C 344.785156 219.089844 346.265625 218.460938 345.75 218.3125 "/>
</g>
</g>
<g clip-path="url(#clip63)" clip-rule="nonzero">
<g clip-path="url(#clip64)" clip-rule="nonzero">
<path style=" stroke:none;fill-rule:nonzero;fill:rgb(79.60968%,64.709473%,64.309692%);fill-opacity:1;" d="M 351.121094 213.039062 C 320.148438 204.121094 288.507812 197.730469 257.597656 188.578125 C 225.882812 179.179688 194.359375 169.167969 162.578125 159.972656 C 162.171875 159.851562 160.691406 160.496094 161.214844 160.652344 C 192.519531 169.707031 223.625 179.390625 254.808594 188.824219 C 286.144531 198.296875 318.316406 204.667969 349.765625 213.714844 C 350.171875 213.824219 351.652344 213.191406 351.121094 213.039062 "/>
</g>
</g>
<g clip-path="url(#clip65)" clip-rule="nonzero">
<g clip-path="url(#clip66)" clip-rule="nonzero">
<path style=" stroke:none;fill-rule:nonzero;fill:rgb(79.60968%,64.709473%,64.309692%);fill-opacity:1;" d="M 337.167969 233.625 C 305.535156 224.472656 274.121094 214.617188 242.542969 205.324219 C 226.976562 200.742188 211.375 196.285156 195.792969 191.777344 C 188.523438 189.675781 181.4375 187.402344 174.414062 184.570312 C 167.664062 181.847656 160.953125 179.058594 153.894531 177.234375 C 153.410156 177.109375 151.9375 177.847656 152.855469 178.089844 C 160.265625 179.996094 167.28125 183 174.355469 185.855469 C 181.40625 188.699219 188.585938 190.851562 195.875 192.957031 C 211.464844 197.460938 227.066406 201.929688 242.640625 206.515625 C 273.742188 215.664062 304.675781 225.378906 335.828125 234.394531 C 336.304688 234.535156 337.800781 233.8125 337.167969 233.625 "/>
</g>
</g>
<g clip-path="url(#clip67)" clip-rule="nonzero">
<g clip-path="url(#clip68)" clip-rule="nonzero">
<path style=" stroke:none;fill-rule:nonzero;fill:rgb(79.60968%,64.709473%,64.309692%);fill-opacity:1;" d="M 342.09375 230.976562 C 310.628906 221.847656 279.625 211.203125 248.144531 202.125 C 233.316406 197.847656 218.355469 194.222656 203.347656 190.632812 C 188.097656 187 172.859375 182.992188 158.554688 176.464844 C 158.105469 176.257812 156.78125 176.9375 156.992188 177.042969 C 184.40625 189.558594 215.070312 193.804688 243.917969 201.976562 C 276.402344 211.164062 308.308594 222.238281 340.734375 231.644531 C 341.121094 231.753906 342.601562 231.125 342.09375 230.976562 "/>
</g>
</g>
<g clip-path="url(#clip69)" clip-rule="nonzero">
<g clip-path="url(#clip70)" clip-rule="nonzero">
<path style=" stroke:none;fill-rule:nonzero;fill:rgb(79.60968%,64.709473%,64.309692%);fill-opacity:1;" d="M 347.464844 225.699219 C 316.484375 216.785156 284.84375 210.394531 253.933594 201.234375 C 222.21875 191.84375 190.695312 181.832031 158.914062 172.636719 C 158.507812 172.519531 157.027344 173.160156 157.558594 173.308594 C 188.855469 182.371094 219.960938 192.054688 251.144531 201.488281 C 282.476562 210.960938 314.652344 217.324219 346.101562 226.378906 C 346.507812 226.492188 347.988281 225.855469 347.464844 225.699219 "/>
</g>
</g>
<g clip-path="url(#clip71)" clip-rule="nonzero">
<g clip-path="url(#clip72)" clip-rule="nonzero">
<path style=" stroke:none;fill-rule:nonzero;fill:rgb(79.60968%,64.709473%,64.309692%);fill-opacity:1;" d="M 335.738281 238.550781 C 304.113281 229.390625 272.703125 219.539062 241.117188 210.246094 C 225.554688 205.667969 209.957031 201.214844 194.371094 196.703125 C 187.105469 194.605469 180.007812 192.324219 172.992188 189.496094 C 166.234375 186.777344 159.535156 183.980469 152.46875 182.164062 C 151.980469 182.035156 150.515625 182.777344 151.4375 183.015625 C 158.839844 184.921875 165.859375 187.925781 172.933594 190.777344 C 179.976562 193.617188 187.164062 195.769531 194.449219 197.878906 C 210.046875 202.386719 225.644531 206.851562 241.210938 211.433594 C 272.320312 220.585938 303.253906 230.304688 334.40625 239.320312 C 334.878906 239.464844 336.382812 238.738281 335.738281 238.550781 "/>
</g>
</g>
<g clip-path="url(#clip73)" clip-rule="nonzero">
<g clip-path="url(#clip74)" clip-rule="nonzero">
<path style=" stroke:none;fill-rule:nonzero;fill:rgb(79.60968%,64.709473%,64.309692%);fill-opacity:1;" d="M 145.746094 202.125 C 177.367188 211.285156 208.78125 221.136719 240.367188 230.429688 C 255.929688 235.015625 271.535156 239.46875 287.117188 243.980469 C 294.386719 246.078125 301.476562 248.351562 308.496094 251.179688 C 315.242188 253.898438 321.957031 256.695312 329.015625 258.511719 C 329.5 258.640625 330.96875 257.898438 330.046875 257.667969 C 322.644531 255.753906 315.625 252.75 308.550781 249.898438 C 301.503906 247.058594 294.320312 244.90625 287.035156 242.796875 C 271.445312 238.289062 255.839844 233.824219 240.269531 229.242188 C 209.164062 220.089844 178.226562 210.378906 147.082031 201.355469 C 146.605469 201.21875 145.101562 201.9375 145.746094 202.125 "/>
</g>
</g>
<g clip-path="url(#clip75)" clip-rule="nonzero">
<g clip-path="url(#clip76)" clip-rule="nonzero">
<path style=" stroke:none;fill-rule:nonzero;fill:rgb(79.60968%,64.709473%,64.309692%);fill-opacity:1;" d="M 332.074219 251.214844 C 300.449219 242.058594 269.039062 232.203125 237.453125 222.910156 C 221.890625 218.328125 206.292969 213.871094 190.707031 209.371094 C 183.441406 207.261719 176.34375 204.988281 169.324219 202.164062 C 162.578125 199.441406 155.871094 196.644531 148.804688 194.828125 C 148.316406 194.699219 146.851562 195.441406 147.773438 195.671875 C 155.175781 197.585938 162.195312 200.59375 169.269531 203.441406 C 176.3125 206.28125 183.5 208.433594 190.789062 210.542969 C 206.382812 215.050781 221.980469 219.515625 237.546875 224.097656 C 268.65625 233.25 299.597656 242.960938 330.742188 251.988281 C 331.214844 252.121094 332.71875 251.402344 332.074219 251.214844 "/>
</g>
</g>
<g clip-path="url(#clip77)" clip-rule="nonzero">
<g clip-path="url(#clip78)" clip-rule="nonzero">
<path style=" stroke:none;fill-rule:nonzero;fill:rgb(79.60968%,64.709473%,64.309692%);fill-opacity:1;" d="M 337.007812 248.570312 C 305.535156 239.441406 274.539062 228.792969 243.050781 219.71875 C 228.230469 215.441406 213.269531 211.808594 198.261719 208.226562 C 183.015625 204.59375 167.765625 200.585938 153.46875 194.050781 C 153.011719 193.839844 151.699219 194.527344 151.90625 194.625 C 179.320312 207.148438 209.984375 211.394531 238.835938 219.558594 C 271.3125 228.757812 303.226562 239.820312 335.640625 249.226562 C 336.039062 249.339844 337.519531 248.710938 337.007812 248.570312 "/>
</g>
</g>
<g clip-path="url(#clip79)" clip-rule="nonzero">
<g clip-path="url(#clip80)" clip-rule="nonzero">
<path style=" stroke:none;fill-rule:nonzero;fill:rgb(79.60968%,64.709473%,64.309692%);fill-opacity:1;" d="M 342.371094 243.292969 C 311.398438 234.371094 279.753906 227.980469 248.847656 218.820312 C 217.132812 209.429688 185.601562 199.417969 153.828125 190.222656 C 153.425781 190.101562 151.945312 190.746094 152.46875 190.894531 C 183.769531 199.957031 214.875 209.640625 246.058594 219.074219 C 277.390625 228.546875 309.566406 234.910156 341.011719 243.964844 C 341.414062 244.082031 342.902344 243.441406 342.371094 243.292969 "/>
</g>
</g>
<g clip-path="url(#clip81)" clip-rule="nonzero">
<g clip-path="url(#clip82)" clip-rule="nonzero">
<path style=" stroke:none;fill-rule:nonzero;fill:rgb(79.60968%,64.709473%,64.309692%);fill-opacity:1;" d="M 156.019531 156.210938 C 187.015625 165.132812 218.675781 171.53125 249.609375 180.691406 C 281.34375 190.089844 312.894531 200.105469 344.6875 209.316406 C 345.09375 209.429688 346.582031 208.792969 346.050781 208.636719 C 314.734375 199.566406 283.605469 189.878906 252.398438 180.441406 C 221.046875 170.964844 188.855469 164.59375 157.378906 155.539062 C 156.976562 155.417969 155.496094 156.054688 156.019531 156.210938 "/>
</g>
</g>
<g clip-path="url(#clip83)" clip-rule="nonzero">
<g clip-path="url(#clip84)" clip-rule="nonzero">
<path style=" stroke:none;fill-rule:nonzero;fill:rgb(79.60968%,64.709473%,64.309692%);fill-opacity:1;" d="M 346.003906 204.964844 C 313.484375 195.554688 281.167969 185.445312 248.675781 175.882812 C 232.570312 171.136719 216.417969 166.523438 200.273438 161.855469 C 192.511719 159.605469 184.890625 157.257812 177.375 154.269531 C 170.175781 151.402344 163.035156 148.4375 155.511719 146.484375 C 155.023438 146.363281 153.558594 147.097656 154.480469 147.335938 C 161.890625 149.257812 168.949219 152.195312 176.039062 155.039062 C 183.542969 158.042969 191.179688 160.375 198.941406 162.625 C 215.078125 167.292969 231.230469 171.914062 247.34375 176.652344 C 279.835938 186.199219 312.152344 196.324219 344.675781 205.738281 C 345.152344 205.871094 346.648438 205.152344 346.003906 204.964844 "/>
</g>
</g>
<g clip-path="url(#clip85)" clip-rule="nonzero">
<g clip-path="url(#clip86)" clip-rule="nonzero">
<path style=" stroke:none;fill-rule:nonzero;fill:rgb(79.60968%,64.709473%,64.309692%);fill-opacity:1;" d="M 351.089844 202.355469 C 318.164062 192.816406 285.71875 181.722656 252.773438 172.25 C 237.472656 167.84375 222.039062 164.09375 206.5625 160.367188 C 190.835938 156.578125 175.117188 152.414062 160.328125 145.757812 C 159.871094 145.550781 158.554688 146.238281 158.765625 146.335938 C 172.792969 152.652344 187.628906 156.726562 202.539062 160.382812 C 218.40625 164.269531 234.265625 168.03125 249.976562 172.503906 C 283.425781 182.011719 316.328125 193.339844 349.730469 203.023438 C 350.117188 203.132812 351.597656 202.507812 351.089844 202.355469 "/>
</g>
</g>
</g>
</svg>
