<?xml version="1.0" encoding="UTF-8"?>
<svg xmlns="http://www.w3.org/2000/svg" xmlns:xlink="http://www.w3.org/1999/xlink" width="375pt" height="374.999991pt" viewBox="0 0 375 374.999991" version="1.2">
<defs>
<clipPath id="clip1">
  <path d="M 178 4.832031 L 365.582031 4.832031 L 365.582031 192 L 178 192 Z M 178 4.832031 "/>
</clipPath>
<clipPath id="clip2">
  <path d="M 4.832031 178 L 192 178 L 192 365.582031 L 4.832031 365.582031 Z M 4.832031 178 "/>
</clipPath>
</defs>
<g id="surface1">
<path style=" stroke:none;fill-rule:nonzero;fill:rgb(85.099792%,56.079102%,53.729248%);fill-opacity:1;" d="M 355.460938 134.019531 L 236.394531 14.953125 L 238.789062 12.558594 L 357.855469 131.625 L 355.460938 134.019531 "/>
<g clip-path="url(#clip1)" clip-rule="nonzero">
<path style=" stroke:none;fill-rule:nonzero;fill:rgb(85.099792%,56.079102%,53.729248%);fill-opacity:1;" d="M 363.183594 191.480469 L 178.933594 7.230469 L 181.324219 4.839844 L 365.574219 189.089844 L 363.183594 191.480469 "/>
</g>
<path style=" stroke:none;fill-rule:nonzero;fill:rgb(85.099792%,56.079102%,53.729248%);fill-opacity:1;" d="M 356.65625 234.695312 L 135.71875 13.757812 L 138.113281 11.367188 L 359.046875 232.300781 L 356.65625 234.695312 "/>
<path style=" stroke:none;fill-rule:nonzero;fill:rgb(85.099792%,56.079102%,53.729248%);fill-opacity:1;" d="M 342.484375 270.261719 L 100.148438 27.929688 L 102.542969 25.539062 L 344.875 267.867188 L 342.484375 270.261719 "/>
<path style=" stroke:none;fill-rule:nonzero;fill:rgb(85.099792%,56.079102%,53.729248%);fill-opacity:1;" d="M 362.035156 165.464844 L 204.949219 8.378906 L 207.339844 5.984375 L 364.429688 163.070312 L 362.035156 165.464844 "/>
<path style=" stroke:none;fill-rule:nonzero;fill:rgb(85.099792%,56.079102%,53.729248%);fill-opacity:1;" d="M 361.085938 214.253906 L 156.160156 9.328125 L 158.550781 6.933594 L 363.476562 211.859375 L 361.085938 214.253906 "/>
<path style=" stroke:none;fill-rule:nonzero;fill:rgb(85.099792%,56.079102%,53.729248%);fill-opacity:1;" d="M 350.363281 253.273438 L 117.136719 20.046875 L 119.53125 17.65625 L 352.753906 250.878906 L 350.363281 253.273438 "/>
<path style=" stroke:none;fill-rule:nonzero;fill:rgb(85.099792%,56.079102%,53.729248%);fill-opacity:1;" d="M 333.183594 285.835938 L 84.574219 37.226562 L 86.96875 34.835938 L 335.578125 283.441406 L 333.183594 285.835938 "/>
<path style=" stroke:none;fill-rule:nonzero;fill:rgb(85.099792%,56.079102%,53.729248%);fill-opacity:1;" d="M 322.585938 300.109375 L 70.300781 47.824219 L 72.695312 45.433594 L 324.980469 297.71875 L 322.585938 300.109375 "/>
<path style=" stroke:none;fill-rule:nonzero;fill:rgb(85.099792%,56.079102%,53.729248%);fill-opacity:1;" d="M 310.757812 313.152344 L 57.257812 59.652344 L 59.652344 57.257812 L 313.152344 310.757812 L 310.757812 313.152344 "/>
<path style=" stroke:none;fill-rule:nonzero;fill:rgb(85.099792%,56.079102%,53.729248%);fill-opacity:1;" d="M 297.71875 324.980469 L 45.433594 72.695312 L 47.824219 70.300781 L 300.109375 322.585938 L 297.71875 324.980469 "/>
<path style=" stroke:none;fill-rule:nonzero;fill:rgb(85.099792%,56.079102%,53.729248%);fill-opacity:1;" d="M 283.445312 335.578125 L 34.835938 86.96875 L 37.226562 84.574219 L 285.835938 333.183594 L 283.445312 335.578125 "/>
<path style=" stroke:none;fill-rule:nonzero;fill:rgb(85.099792%,56.079102%,53.729248%);fill-opacity:1;" d="M 267.871094 344.875 L 25.539062 102.542969 L 27.929688 100.148438 L 270.261719 342.484375 L 267.871094 344.875 "/>
<path style=" stroke:none;fill-rule:nonzero;fill:rgb(85.099792%,56.079102%,53.729248%);fill-opacity:1;" d="M 250.878906 352.757812 L 17.65625 119.53125 L 20.046875 117.140625 L 253.273438 350.363281 L 250.878906 352.757812 "/>
<path style=" stroke:none;fill-rule:nonzero;fill:rgb(85.099792%,56.079102%,53.729248%);fill-opacity:1;" d="M 232.300781 359.046875 L 11.367188 138.113281 L 13.757812 135.71875 L 234.691406 356.65625 L 232.300781 359.046875 "/>
<path style=" stroke:none;fill-rule:nonzero;fill:rgb(85.099792%,56.079102%,53.729248%);fill-opacity:1;" d="M 211.859375 363.476562 L 6.933594 158.550781 L 9.328125 156.160156 L 214.253906 361.085938 L 211.859375 363.476562 "/>
<g clip-path="url(#clip2)" clip-rule="nonzero">
<path style=" stroke:none;fill-rule:nonzero;fill:rgb(85.099792%,56.079102%,53.729248%);fill-opacity:1;" d="M 189.089844 365.574219 L 4.839844 181.324219 L 7.230469 178.933594 L 191.480469 363.183594 L 189.089844 365.574219 "/>
</g>
<path style=" stroke:none;fill-rule:nonzero;fill:rgb(85.099792%,56.079102%,53.729248%);fill-opacity:1;" d="M 163.070312 364.429688 L 5.984375 207.339844 L 8.378906 204.949219 L 165.464844 362.035156 L 163.070312 364.429688 "/>
<path style=" stroke:none;fill-rule:nonzero;fill:rgb(85.099792%,56.079102%,53.729248%);fill-opacity:1;" d="M 131.625 357.855469 L 12.558594 238.789062 L 14.953125 236.394531 L 134.019531 355.460938 L 131.625 357.855469 "/>
<path style=" stroke:none;fill-rule:nonzero;fill:rgb(85.099792%,56.079102%,53.729248%);fill-opacity:1;" d="M 332.976562 86.664062 L 283.75 37.4375 L 286.140625 35.042969 L 335.371094 84.269531 L 332.976562 86.664062 "/>
<path style=" stroke:none;fill-rule:nonzero;fill:rgb(85.099792%,56.079102%,53.729248%);fill-opacity:1;" d="M 84.269531 335.371094 L 35.042969 286.140625 L 37.4375 283.75 L 86.664062 332.976562 L 84.269531 335.371094 "/>
</g>
</svg>
